<svg width="1880" height="993" viewBox="0 0 1880 993" fill="none" xmlns="http://www.w3.org/2000/svg">
<path d="M290.441 4.1984C480.71 -19.9666 562.493 120.028 515.351 215.649C468.209 311.269 258.824 331.479 288.092 486.351C317.373 641.236 62.8174 711.261 62.8174 711.261" stroke="white" stroke-miterlimit="10"/>
<path d="M0.879395 44.6174C0.879395 44.6174 145.923 97.1459 290.238 78.2864C434.553 59.4269 451.428 144.193 434.553 177.943C399.534 247.981 212.33 261.441 200.207 374.571C191.094 459.608 263.508 573.899 99.1999 634.5" stroke="white" stroke-miterlimit="10"/>
<path d="M65.531 101.182C65.531 101.182 213.788 82.2689 187.314 165.834C156.98 261.616 85.727 260.104 153.065 381.321C177.014 424.44 184.047 598.158 52.058 563.139" stroke="white" stroke-miterlimit="10"/>
<path d="M316.698 198.153C353.515 198.153 383.361 181.87 383.361 161.784C383.361 141.698 353.515 125.415 316.698 125.415C279.881 125.415 250.035 141.698 250.035 161.784C250.035 181.87 279.881 198.153 316.698 198.153Z" stroke="white" stroke-miterlimit="10"/>
<path d="M1730.08 279.409C1730.08 279.409 1462.59 216.553 1381.78 480.532C1323.8 669.951 1318.86 773.239 1198.57 825.309C1078.3 877.378 1008.26 888.529 1001.08 944.905" stroke="white" stroke-miterlimit="10"/>
<path d="M1317.06 944.906C1317.06 944.906 1246.46 769.635 1432.78 678.065C1558.56 616.248 1499.6 406.377 1581.11 339.566C1645.76 286.591 1730.08 400.977 1730.08 400.977" stroke="white" stroke-miterlimit="10"/>
<path d="M1372.32 992.263C1372.32 992.263 1374.46 856.683 1518.12 767.799C1661.77 678.915 1605.54 525.379 1688.16 502.038C1770.77 478.696 1853.38 579.258 1853.38 579.258" stroke="white" stroke-miterlimit="10"/>
<path d="M1473.37 943.825C1473.37 943.825 1462.59 832.491 1572.13 818.127C1681.67 803.763 1775.05 925.465 1775.05 925.465" stroke="white" stroke-miterlimit="10"/>
<path d="M314.742 811.122L272.244 853.606L229.759 811.122L198.048 842.833L240.532 885.318L198.048 927.802L229.759 959.527L272.244 917.029L314.742 959.527L346.453 927.816L303.955 885.318L346.453 842.833L314.742 811.122Z" stroke="#FF0B53" stroke-width="4" stroke-miterlimit="10"/>
<path d="M1847.32 411.71L1771.08 487.931L1694.86 411.71L1637.97 468.599L1714.19 544.834L1637.97 621.055L1694.86 677.944L1771.08 601.723L1847.32 677.944L1904.2 621.055L1827.98 544.834L1904.2 468.599L1847.32 411.71Z" fill="#FF0B53"/>
</svg>
