<svg width="147" height="423" viewBox="0 0 147 423" fill="none" xmlns="http://www.w3.org/2000/svg">
<g clip-path="url(#clip0_1_176)">
<path d="M7.1851 419.409C7.1851 417.426 5.57666 415.819 3.59255 415.819C1.60844 415.819 -2.4364e-07 417.426 -1.56956e-07 419.409C-7.02715e-08 421.392 1.60844 423 3.59255 423C5.57666 423 7.1851 421.392 7.1851 419.409Z" fill="white"/>
<path d="M7.1851 367.432C7.1851 365.449 5.57666 363.841 3.59255 363.841C1.60844 363.841 -2.4364e-07 365.449 -1.56956e-07 367.432C-7.02715e-08 369.415 1.60844 371.022 3.59255 371.022C5.57666 371.022 7.1851 369.415 7.1851 367.432Z" fill="#FF0B53"/>
<path d="M7.1851 315.455C7.1851 313.472 5.57666 311.864 3.59255 311.864C1.60844 311.864 -2.4364e-07 313.472 -1.56956e-07 315.455C-7.02717e-08 317.438 1.60844 319.046 3.59255 319.046C5.57666 319.046 7.1851 317.438 7.1851 315.455Z" fill="#FF0B53"/>
<path d="M7.1851 263.477C7.1851 261.494 5.57666 259.887 3.59255 259.887C1.60844 259.887 -2.4364e-07 261.494 -1.56956e-07 263.477C-7.02717e-08 265.46 1.60844 267.068 3.59255 267.068C5.57666 267.068 7.1851 265.46 7.1851 263.477Z" fill="white"/>
<path d="M7.1851 211.5C7.1851 209.517 5.57666 207.909 3.59255 207.909C1.60844 207.909 -2.4364e-07 209.517 -1.56956e-07 211.5C-7.02716e-08 213.483 1.60844 215.09 3.59255 215.09C5.57666 215.09 7.1851 213.483 7.1851 211.5Z" fill="#FF0B53"/>
<path d="M7.1851 159.523C7.1851 157.54 5.57666 155.932 3.59255 155.932C1.60844 155.932 -2.43638e-07 157.54 -1.56954e-07 159.523C-7.02702e-08 161.506 1.60844 163.114 3.59255 163.114C5.57666 163.114 7.1851 161.506 7.1851 159.523Z" fill="#FF0B53"/>
<path d="M3.59255 103.955C5.5655 103.955 7.1851 105.574 7.1851 107.546C7.1851 109.517 5.56551 111.136 3.59255 111.136C1.61959 111.136 -7.07588e-08 109.517 -1.56956e-07 107.546C-2.44439e-07 105.544 1.61959 103.955 3.59255 103.955Z" fill="#FF0B53"/>
<path d="M7.1851 55.5679C7.1851 53.5847 5.57666 51.9771 3.59255 51.9771C1.60844 51.9771 -2.4364e-07 53.5847 -1.56955e-07 55.5679C-7.02708e-08 57.551 1.60844 59.1586 3.59255 59.1586C5.57666 59.1586 7.1851 57.551 7.1851 55.5679Z" fill="#FF0B53"/>
<path d="M7.1851 3.59116C7.1851 1.60805 5.57666 0.000427002 3.59255 0.000427089C1.60844 0.000427176 -2.4364e-07 1.60805 -1.56956e-07 3.59116C-7.02716e-08 5.57426 1.60844 7.18188 3.59255 7.18188C5.57666 7.18188 7.1851 5.57426 7.1851 3.59116Z" fill="#FF0B53"/>
<path d="M42.1388 419.409C42.1388 417.426 40.5304 415.819 38.5463 415.819C36.5622 415.819 34.9537 417.426 34.9537 419.409C34.9537 421.392 36.5622 423 38.5463 423C40.5304 423 42.1388 421.392 42.1388 419.409Z" fill="#FF0B53"/>
<path d="M42.1388 367.432C42.1388 365.449 40.5304 363.841 38.5463 363.841C36.5622 363.841 34.9537 365.449 34.9537 367.432C34.9537 369.415 36.5622 371.022 38.5463 371.022C40.5304 371.022 42.1388 369.415 42.1388 367.432Z" fill="#FF0B53"/>
<path d="M42.1388 315.455C42.1388 313.472 40.5304 311.864 38.5463 311.864C36.5622 311.864 34.9537 313.472 34.9537 315.455C34.9537 317.438 36.5622 319.046 38.5463 319.046C40.5304 319.046 42.1388 317.438 42.1388 315.455Z" fill="#FF0B53"/>
<path d="M42.1388 263.477C42.1388 261.494 40.5304 259.887 38.5463 259.887C36.5622 259.887 34.9537 261.494 34.9537 263.477C34.9537 265.46 36.5622 267.068 38.5463 267.068C40.5304 267.068 42.1388 265.46 42.1388 263.477Z" fill="#FF0B53"/>
<path d="M42.1388 211.5C42.1388 209.517 40.5304 207.909 38.5463 207.909C36.5622 207.909 34.9537 209.517 34.9537 211.5C34.9537 213.483 36.5622 215.09 38.5463 215.09C40.5304 215.09 42.1388 213.483 42.1388 211.5Z" fill="#FF0B53"/>
<path d="M42.1388 159.523C42.1388 157.54 40.5304 155.932 38.5463 155.932C36.5622 155.932 34.9537 157.54 34.9537 159.523C34.9537 161.506 36.5622 163.114 38.5463 163.114C40.5304 163.114 42.1388 161.506 42.1388 159.523Z" fill="white"/>
<path d="M38.5463 103.955C40.5192 103.955 42.1388 105.574 42.1388 107.546C42.1388 109.517 40.5192 111.136 38.5463 111.136C36.5733 111.136 34.9537 109.517 34.9537 107.546C34.9537 105.544 36.5733 103.955 38.5463 103.955Z" fill="#FF0B53"/>
<path d="M42.1388 55.5679C42.1388 53.5847 40.5304 51.9771 38.5463 51.9771C36.5622 51.9771 34.9537 53.5847 34.9537 55.5679C34.9537 57.551 36.5622 59.1586 38.5463 59.1586C40.5304 59.1586 42.1388 57.551 42.1388 55.5679Z" fill="#FF0B53"/>
<path d="M42.1388 3.59116C42.1388 1.60805 40.5304 0.000427002 38.5463 0.000427089C36.5622 0.000427176 34.9537 1.60805 34.9537 3.59116C34.9537 5.57426 36.5622 7.18188 38.5463 7.18188C40.5304 7.18188 42.1388 5.57426 42.1388 3.59116Z" fill="white"/>
<path d="M77.0925 419.409C77.0925 417.426 75.4841 415.819 73.5 415.819C71.5158 415.819 69.9074 417.426 69.9074 419.409C69.9074 421.392 71.5158 423 73.5 423C75.4841 423 77.0925 421.392 77.0925 419.409Z" fill="#FF0B53"/>
<path d="M77.0925 367.432C77.0925 365.449 75.4841 363.841 73.5 363.841C71.5158 363.841 69.9074 365.449 69.9074 367.432C69.9074 369.415 71.5158 371.022 73.5 371.022C75.4841 371.022 77.0925 369.415 77.0925 367.432Z" fill="white"/>
<path d="M77.0925 315.455C77.0925 313.472 75.4841 311.864 73.5 311.864C71.5158 311.864 69.9074 313.472 69.9074 315.455C69.9074 317.438 71.5158 319.046 73.5 319.046C75.4841 319.046 77.0925 317.438 77.0925 315.455Z" fill="#FF0B53"/>
<path d="M77.0925 263.477C77.0925 261.494 75.4841 259.887 73.5 259.887C71.5158 259.887 69.9074 261.494 69.9074 263.477C69.9074 265.46 71.5158 267.068 73.5 267.068C75.4841 267.068 77.0925 265.46 77.0925 263.477Z" fill="#FF0B53"/>
<path d="M77.0925 211.5C77.0925 209.517 75.4841 207.909 73.5 207.909C71.5158 207.909 69.9074 209.517 69.9074 211.5C69.9074 213.483 71.5158 215.09 73.5 215.09C75.4841 215.09 77.0925 213.483 77.0925 211.5Z" fill="#FF0B53"/>
<path d="M77.0925 159.523C77.0925 157.54 75.4841 155.932 73.5 155.932C71.5158 155.932 69.9074 157.54 69.9074 159.523C69.9074 161.506 71.5158 163.114 73.5 163.114C75.4841 163.114 77.0925 161.506 77.0925 159.523Z" fill="#FF0B53"/>
<path d="M73.5 103.955C75.4729 103.955 77.0925 105.574 77.0925 107.546C77.0925 109.517 75.4729 111.136 73.5 111.136C71.527 111.136 69.9074 109.517 69.9074 107.546C69.9074 105.544 71.527 103.955 73.5 103.955Z" fill="white"/>
<path d="M77.0925 55.5679C77.0925 53.5847 75.4841 51.9771 73.5 51.9771C71.5158 51.9771 69.9074 53.5847 69.9074 55.5679C69.9074 57.551 71.5158 59.1586 73.5 59.1586C75.4841 59.1586 77.0925 57.551 77.0925 55.5679Z" fill="#FF0B53"/>
<path d="M77.0925 3.59116C77.0925 1.60805 75.4841 0.000427002 73.5 0.000427089C71.5158 0.000427176 69.9074 1.60805 69.9074 3.59116C69.9074 5.57426 71.5158 7.18188 73.5 7.18188C75.4841 7.18188 77.0925 5.57426 77.0925 3.59116Z" fill="#FF0B53"/>
<path d="M112.046 419.409C112.046 417.426 110.438 415.819 108.454 415.819C106.47 415.819 104.861 417.426 104.861 419.409C104.861 421.392 106.47 423 108.454 423C110.438 423 112.046 421.392 112.046 419.409Z" fill="#FF0B53"/>
<path d="M112.046 367.432C112.046 365.449 110.438 363.841 108.454 363.841C106.47 363.841 104.861 365.449 104.861 367.432C104.861 369.415 106.47 371.022 108.454 371.022C110.438 371.022 112.046 369.415 112.046 367.432Z" fill="#FF0B53"/>
<path d="M112.046 315.455C112.046 313.472 110.438 311.864 108.454 311.864C106.47 311.864 104.861 313.472 104.861 315.455C104.861 317.438 106.47 319.046 108.454 319.046C110.438 319.046 112.046 317.438 112.046 315.455Z" fill="white"/>
<path d="M112.046 263.477C112.046 261.494 110.438 259.887 108.454 259.887C106.47 259.887 104.861 261.494 104.861 263.477C104.861 265.46 106.47 267.068 108.454 267.068C110.438 267.068 112.046 265.46 112.046 263.477Z" fill="#FF0B53"/>
<path d="M112.046 211.5C112.046 209.517 110.438 207.909 108.454 207.909C106.47 207.909 104.861 209.517 104.861 211.5C104.861 213.483 106.47 215.09 108.454 215.09C110.438 215.09 112.046 213.483 112.046 211.5Z" fill="white"/>
<path d="M112.046 159.523C112.046 157.54 110.438 155.932 108.454 155.932C106.47 155.932 104.861 157.54 104.861 159.523C104.861 161.506 106.47 163.114 108.454 163.114C110.438 163.114 112.046 161.506 112.046 159.523Z" fill="#FF0B53"/>
<path d="M108.454 103.955C110.427 103.955 112.046 105.574 112.046 107.546C112.046 109.517 110.427 111.136 108.454 111.136C106.481 111.136 104.861 109.517 104.861 107.546C104.861 105.544 106.481 103.955 108.454 103.955Z" fill="#FF0B53"/>
<path d="M112.046 55.5679C112.046 53.5847 110.438 51.9771 108.454 51.9771C106.47 51.9771 104.861 53.5847 104.861 55.5679C104.861 57.551 106.47 59.1586 108.454 59.1586C110.438 59.1586 112.046 57.551 112.046 55.5679Z" fill="#FF0B53"/>
<path d="M112.046 3.59116C112.046 1.60805 110.438 0.000427002 108.454 0.000427089C106.47 0.000427176 104.861 1.60805 104.861 3.59116C104.861 5.57426 106.47 7.18188 108.454 7.18188C110.438 7.18188 112.046 5.57426 112.046 3.59116Z" fill="#FF0B53"/>
<path d="M147 419.409C147 417.426 145.392 415.819 143.407 415.819C141.423 415.819 139.815 417.426 139.815 419.409C139.815 421.392 141.423 423 143.407 423C145.392 423 147 421.392 147 419.409Z" fill="#FF0B53"/>
<path d="M147 367.432C147 365.449 145.392 363.841 143.407 363.841C141.423 363.841 139.815 365.449 139.815 367.432C139.815 369.415 141.423 371.022 143.407 371.022C145.392 371.022 147 369.415 147 367.432Z" fill="#FF0B53"/>
<path d="M147 315.455C147 313.472 145.392 311.864 143.407 311.864C141.423 311.864 139.815 313.472 139.815 315.455C139.815 317.438 141.423 319.046 143.407 319.046C145.392 319.046 147 317.438 147 315.455Z" fill="#FF0B53"/>
<path d="M147 263.477C147 261.494 145.392 259.887 143.407 259.887C141.423 259.887 139.815 261.494 139.815 263.477C139.815 265.46 141.423 267.068 143.407 267.068C145.392 267.068 147 265.46 147 263.477Z" fill="#FF0B53"/>
<path d="M147 211.5C147 209.517 145.392 207.909 143.407 207.909C141.423 207.909 139.815 209.517 139.815 211.5C139.815 213.483 141.423 215.09 143.407 215.09C145.392 215.09 147 213.483 147 211.5Z" fill="#FF0B53"/>
<path d="M147 159.523C147 157.54 145.392 155.932 143.407 155.932C141.423 155.932 139.815 157.54 139.815 159.523C139.815 161.506 141.423 163.114 143.407 163.114C145.392 163.114 147 161.506 147 159.523Z" fill="#FF0B53"/>
<path d="M143.407 103.955C145.38 103.955 147 105.574 147 107.546C147 109.517 145.38 111.136 143.407 111.136C141.434 111.136 139.815 109.517 139.815 107.546C139.815 105.544 141.434 103.955 143.407 103.955Z" fill="#FF0B53"/>
<path d="M147 55.5679C147 53.5847 145.392 51.9771 143.407 51.9771C141.423 51.9771 139.815 53.5847 139.815 55.5679C139.815 57.551 141.423 59.1586 143.407 59.1586C145.392 59.1586 147 57.551 147 55.5679Z" fill="white"/>
<path d="M147 3.59116C147 1.60805 145.392 0.000427002 143.407 0.000427089C141.423 0.000427176 139.815 1.60805 139.815 3.59116C139.815 5.57426 141.423 7.18188 143.407 7.18188C145.392 7.18188 147 5.57426 147 3.59116Z" fill="white"/>
</g>
<defs>
<clipPath id="clip0_1_176">
<rect width="423" height="147" fill="white" transform="translate(0 423) rotate(-90)"/>
</clipPath>
</defs>
</svg>
